<?xml version="1.0" ?><!DOCTYPE svg  PUBLIC '-//W3C//DTD SVG 1.1//EN'  'http://www.w3.org/Graphics/SVG/1.1/DTD/svg11.dtd'><svg enable-background="new 0 0 24 24" height="24px" id="Layer_1" version="1.1" viewBox="0 0 24 24" width="24px" xml:space="preserve" xmlns="http://www.w3.org/2000/svg" xmlns:xlink="http://www.w3.org/1999/xlink"><g><path d="M20.5,24h-17C1.57,24,0,22.43,0,20.5v-17C0,1.57,1.57,0,3.5,0h17C22.43,0,24,1.57,24,3.5v17C24,22.43,22.43,24,20.5,24z    M3.5,1C2.122,1,1,2.121,1,3.5v17C1,21.879,2.122,23,3.5,23h17c1.378,0,2.5-1.121,2.5-2.5v-17C23,2.121,21.878,1,20.5,1H3.5z"/><path d="M12,18c-3.309,0-6-2.691-6-6c0-3.309,2.691-6,6-6c3.309,0,6,2.691,6,6C18,15.309,15.309,18,12,18z M12,7   c-2.757,0-5,2.243-5,5s2.243,5,5,5s5-2.243,5-5S14.757,7,12,7z"/><path d="M12,15.25c-1.792,0-3.25-1.458-3.25-3.25S10.208,8.75,12,8.75s3.25,1.458,3.25,3.25S13.792,15.25,12,15.25z M12,9.75   c-1.241,0-2.25,1.01-2.25,2.25s1.009,2.25,2.25,2.25s2.25-1.01,2.25-2.25S13.241,9.75,12,9.75z"/><rect height="1" width="8" x="1" y="7"/><rect height="1" width="8" x="15" y="7"/><path d="M6.5,8h-3C3.224,8,3,7.775,3,7.5v-7C3,0.225,3.224,0,3.5,0h3C6.776,0,7,0.225,7,0.5v7C7,7.775,6.776,8,6.5,8z M4,7h2V1H4V7   z"/><path d="M20.5,6h-3C17.225,6,17,5.775,17,5.5v-3C17,2.225,17.225,2,17.5,2h3C20.775,2,21,2.225,21,2.5v3C21,5.775,20.775,6,20.5,6z    M18,5h2V3h-2V5z"/></g></svg>